<!DOCTYPE svg PUBLIC "-//W3C//DTD SVG 1.1//EN" "http://www.w3.org/Graphics/SVG/1.1/DTD/svg11.dtd">

<!-- Uploaded to: SVG Repo, www.svgrepo.com, Transformed by: SVG Repo Mixer Tools -->
<svg width="800px" height="800px" viewBox="0 0 400 400" fill="none" xmlns="http://www.w3.org/2000/svg" stroke="#6b9080">

<g id="SVGRepo_bgCarrier" stroke-width="0"/>

<g id="SVGRepo_tracerCarrier" stroke-linecap="round" stroke-linejoin="round"/>

<g id="SVGRepo_iconCarrier"> <path d="M120.547 214.429C120.547 187.878 104.047 110.33 117.927 93.9285C130.975 78.5110 263.514 82.3773 275.493 96.4235C284.404 105.825 274.98 201.812 269.047 220.032" stroke="#6b9080" stroke-opacity="0.9" stroke-width="10" stroke-linecap="round" stroke-linejoin="round"/> <path d="M260.023 222.458C213.1 217.603 106.189 225.809 120.549 217.607" stroke="#6b9080" stroke-opacity="0.9" stroke-width="10" stroke-linecap="round" stroke-linejoin="round"/> <path d="M111.55 234.424C99.9904 257.458 90.6837 281.015 78 303.038" stroke="#6b9080" stroke-opacity="0.9" stroke-width="10" stroke-linecap="round" stroke-linejoin="round"/> <path d="M78.5566 313.013C159.107 314.462 241.36 309.779 321.512 309.779" stroke="#6b9080" stroke-opacity="0.9" stroke-width="10" stroke-linecap="round" stroke-linejoin="round"/> <path d="M272.021 225.692C289.4 250.974 315.779 273.27 322.94 299.296" stroke="#6b9080" stroke-opacity="0.9" stroke-width="10" stroke-linecap="round" stroke-linejoin="round"/> <path d="M319.065 315.763C244.21 310.382 152.239 312.874 84.4092 315.225" stroke="#6b9080" stroke-opacity="0.9" stroke-width="10" stroke-linecap="round" stroke-linejoin="round"/> <path d="M210.132 284.977C202.431 285.5 194.422 285.301 186.872 286.109" stroke="#6b9080" stroke-opacity="0.9" stroke-width="10" stroke-linecap="round" stroke-linejoin="round"/> </g>

</svg>